<?xml version="1.0" standalone="no"?>
<!DOCTYPE svg PUBLIC "-//W3C//DTD SVG 20010904//EN"
 "http://www.w3.org/TR/2001/REC-SVG-20010904/DTD/svg10.dtd">
<svg version="1.0" xmlns="http://www.w3.org/2000/svg"
 width="50.000000pt" height="50.000000pt" viewBox="0 0 50.000000 50.000000"
 preserveAspectRatio="xMidYMid meet">

<g transform="translate(0.000000,50.000000) scale(0.100000,-0.100000)"
fill="#ffffff" stroke="none">
<path d="M217 442 c-33 -36 -8 -92 40 -92 25 0 53 30 53 57 0 46 -62 69 -93
35z m67 -24 c8 -14 7 -21 -6 -34 -30 -30 -75 9 -48 42 16 18 39 15 54 -8z"/>
<path d="M435 445 c-22 -8 -58 -33 -79 -56 -37 -40 -44 -43 -109 -49 -67 -6
-71 -8 -108 -51 -21 -24 -39 -50 -39 -57 0 -8 15 -32 34 -56 26 -31 35 -53 38
-86 3 -40 6 -45 28 -45 23 0 25 4 28 53 2 39 -2 61 -17 85 l-20 33 25 32 c18
23 34 32 55 32 25 0 29 -4 29 -27 0 -94 63 -178 151 -203 42 -12 36 7 -8 25
-73 31 -122 102 -123 177 0 31 4 37 30 47 30 10 42 43 19 56 -16 10 20 45 69
67 23 10 42 23 42 28 0 6 -1 10 -2 10 -2 -1 -21 -7 -43 -15z m-75 -114 c0 -13
-56 -31 -95 -31 -25 0 -38 -8 -63 -39 -37 -46 -38 -48 -12 -81 21 -27 29 -120
10 -120 -5 0 -10 20 -10 44 0 27 -6 48 -15 56 -9 7 -25 26 -36 42 l-21 29 37
44 c34 42 39 45 88 46 29 0 61 4 72 9 27 12 45 12 45 1z"/>
<path d="M90 173 c0 -11 -16 -35 -35 -53 -38 -37 -43 -72 -11 -78 22 -5 96 64
96 90 0 10 -4 18 -10 18 -5 0 -10 -6 -10 -13 0 -17 -68 -83 -76 -74 -4 4 10
25 30 47 36 40 44 64 26 75 -5 3 -10 -2 -10 -12z"/>
</g>
</svg>
